<svg width="154" height="22" viewBox="0 0 154 22" fill="none" xmlns="http://www.w3.org/2000/svg">
<g clip-path="url(#clip0_1444_5560)">
<g opacity="0.4">
<path d="M11.3929 17.1602C10.8906 17.1602 10.6395 16.7967 10.7965 16.3423L13.088 10.1929C13.245 9.73851 13.7786 9.375 14.2809 9.375H27.2768C27.779 9.375 28.0301 9.73851 27.8732 10.1929L25.5816 16.3423C25.4247 16.7967 24.891 17.1602 24.3888 17.1602H11.3929Z" fill="url(#paint0_linear_1444_5560)"/>
</g>
<path opacity="0.5" d="M19.0526 12.2827C19.0526 12.2827 11.5188 14.4335 10.8909 16.2208C10.2631 18.008 12.3349 12.2827 12.3349 12.2827H19.0526Z" fill="url(#paint1_linear_1444_5560)"/>
<g opacity="0.9">
<path d="M6.0882 12.2828C5.58594 12.2828 5.33482 11.9192 5.49177 11.4649L7.81471 5.31546C7.97166 4.86107 8.50531 4.49756 9.00757 4.49756H22.0035C22.5057 4.49756 22.7569 4.86107 22.5999 5.31546L20.277 11.4649C20.12 11.9192 19.5864 12.2828 19.0841 12.2828H6.0882Z" fill="url(#paint2_linear_1444_5560)"/>
</g>
<g opacity="0.76">
<path d="M1.12824 7.31496C0.625984 7.31496 0.374855 6.95145 0.53181 6.49706L2.85475 0.377959C3.0117 -0.0764302 3.54535 -0.439941 4.04761 -0.439941H17.0435C17.5458 -0.439941 17.7969 -0.0764302 17.6399 0.377959L15.317 6.52736C15.16 6.98175 14.6264 7.34526 14.1241 7.34526H1.12824V7.31496Z" fill="url(#paint3_linear_1444_5560)"/>
</g>
<path opacity="0.76" d="M13.9358 7.31494C13.9358 7.31494 6.21358 9.5263 5.58576 11.3136C4.95794 13.1008 7.06114 7.31494 7.06114 7.31494H13.9358Z" fill="url(#paint4_linear_1444_5560)"/>
<path d="M41.4029 16.9175C39.7706 16.9175 38.3266 16.3419 37.1651 15.2211C36.0037 14.1003 35.4072 12.7371 35.4072 11.1316C35.4072 9.55637 36.0037 8.16291 37.1651 7.04209C38.3266 5.92126 39.7392 5.3457 41.4029 5.3457C43.0353 5.3457 44.4792 5.92126 45.6407 7.04209C45.8604 7.25414 45.9546 7.46619 45.9546 7.76911C45.9546 8.07204 45.8604 8.28409 45.6407 8.49613C45.421 8.70818 45.2012 8.79906 44.8873 8.79906C44.6048 8.79906 44.3537 8.70818 44.1339 8.49613C43.3806 7.76911 42.4702 7.4056 41.4029 7.4056C40.3356 7.4056 39.4253 7.76911 38.6719 8.49613C37.9185 9.22316 37.5418 10.1016 37.5418 11.1619C37.5418 12.1918 37.9185 13.0703 38.6719 13.7973C39.4253 14.5244 40.3356 14.8879 41.4029 14.8879C42.4702 14.8879 43.3806 14.5244 44.1339 13.7973C44.3537 13.5853 44.5734 13.4944 44.8873 13.4944C45.1698 13.4944 45.421 13.5853 45.6407 13.7973C45.8604 14.0094 45.9546 14.2214 45.9546 14.5244C45.9546 14.797 45.8604 15.0393 45.6407 15.2514C44.4792 16.3419 43.0666 16.9175 41.4029 16.9175Z" fill="#333333"/>
<path d="M49.3134 16.9179C49.0309 16.9179 48.7797 16.8271 48.56 16.615C48.3403 16.403 48.2461 16.1909 48.2461 15.888V6.40641C48.2461 6.13378 48.3403 5.89144 48.56 5.67939C48.7797 5.46734 48.9995 5.37646 49.3134 5.37646C49.5959 5.37646 49.847 5.46734 50.0354 5.67939C50.2551 5.89144 50.3493 6.10349 50.3493 6.40641V14.9186H55.8741C56.1566 14.9186 56.4078 15.0095 56.6275 15.2216C56.8159 15.4336 56.9414 15.6457 56.9414 15.9183C56.9414 16.1909 56.8472 16.4333 56.6275 16.6453C56.4078 16.8574 56.188 16.9482 55.8741 16.9482H49.3134V16.9179Z" fill="#333333"/>
<path d="M60.1435 16.9179C59.8609 16.9179 59.6098 16.8271 59.3901 16.615C59.1703 16.403 59.0762 16.1909 59.0762 15.888V6.40641C59.0762 6.13378 59.1703 5.89144 59.3901 5.67939C59.6098 5.46734 59.8296 5.37646 60.1435 5.37646C60.426 5.37646 60.6771 5.46734 60.8655 5.67939C61.0852 5.89144 61.1794 6.10349 61.1794 6.40641V15.9183C61.1794 16.1909 61.0852 16.4333 60.8655 16.6453C60.6771 16.8271 60.426 16.9179 60.1435 16.9179Z" fill="#333333"/>
<path d="M69.6549 16.9175C68.0225 16.9175 66.5785 16.3419 65.4171 15.2211C64.2556 14.1003 63.6592 12.7371 63.6592 11.1316C63.6592 9.55637 64.2556 8.16291 65.4171 7.04209C66.5785 5.92126 67.9911 5.3457 69.6549 5.3457C71.3186 5.3457 72.7312 5.92126 73.8927 7.04209C74.1124 7.25414 74.2066 7.46619 74.2066 7.76911C74.2066 8.07204 74.1124 8.28409 73.8927 8.49613C73.6729 8.70818 73.4532 8.79906 73.1393 8.79906C72.8568 8.79906 72.6056 8.70818 72.3859 8.49613C71.6325 7.76911 70.7222 7.4056 69.6549 7.4056C68.5876 7.4056 67.6772 7.76911 66.9239 8.49613C66.1705 9.22316 65.7938 10.1016 65.7938 11.1619C65.7938 12.1918 66.1705 13.0703 66.9239 13.7973C67.6772 14.5244 68.5876 14.8879 69.6549 14.8879C70.7222 14.8879 71.6325 14.5244 72.3859 13.7973C72.6056 13.5853 72.8254 13.4944 73.1393 13.4944C73.4218 13.4944 73.6729 13.5853 73.8927 13.7973C74.1124 14.0094 74.2066 14.2214 74.2066 14.5244C74.2066 14.797 74.1124 15.0393 73.8927 15.2514C72.7312 16.3419 71.3186 16.9175 69.6549 16.9175Z" fill="#333333"/>
<path d="M85.7587 16.9179C85.382 16.9179 85.0995 16.7665 84.8797 16.4636L81.8976 12.162H78.5701V15.9183C78.5701 16.1909 78.476 16.4333 78.2562 16.6453C78.0365 16.8574 77.8168 16.9482 77.5028 16.9482C77.2203 16.9482 76.9692 16.8574 76.7495 16.6453C76.5297 16.4333 76.4355 16.2212 76.4355 15.9183V6.40641C76.4355 6.13378 76.5297 5.89144 76.7495 5.67939C76.9692 5.46734 77.1889 5.37646 77.5028 5.37646C77.7854 5.37646 78.0365 5.46734 78.2248 5.67939C78.4446 5.89144 78.5388 6.10349 78.5388 6.40641V10.1627H81.8662L84.8484 5.86115C85.0053 5.61881 85.225 5.46734 85.5076 5.43705C85.5703 5.43705 85.6331 5.40676 85.7273 5.40676C85.947 5.40676 86.1354 5.46734 86.3237 5.58851C86.5749 5.73998 86.7004 5.95202 86.7632 6.22466C86.826 6.49729 86.7632 6.73963 86.6062 6.98197L83.7183 11.1926L86.6062 15.373C86.7632 15.6154 86.826 15.8577 86.7632 16.1303C86.7004 16.403 86.5435 16.615 86.3237 16.7665C86.1668 16.8574 85.9784 16.9179 85.7587 16.9179Z" fill="#333333"/>
<path d="M94.328 16.9175C94.0455 16.9175 93.7944 16.8266 93.5747 16.6145C93.3549 16.4025 93.2607 16.1905 93.2607 15.8875C93.2607 15.6149 93.3549 15.3726 93.5747 15.1605C93.7944 14.9485 94.0141 14.8576 94.328 14.8576H100.073C100.449 14.8576 100.795 14.7364 101.077 14.4638C101.36 14.1911 101.485 13.8579 101.485 13.4944C101.485 13.1309 101.328 12.7977 101.077 12.525C100.795 12.2524 100.481 12.1312 100.073 12.1312H96.7765C95.8034 12.1312 94.9872 11.798 94.2966 11.1316C93.606 10.4652 93.2607 9.67754 93.2607 8.73847C93.2607 7.7994 93.606 7.0118 94.2966 6.34536C94.9872 5.67892 95.8034 5.3457 96.7765 5.3457H102.521C102.804 5.3457 103.055 5.43658 103.274 5.64863C103.494 5.86068 103.588 6.07273 103.588 6.37565C103.588 6.67858 103.494 6.89063 103.274 7.10267C103.055 7.31472 102.835 7.4056 102.521 7.4056H96.7765C96.3999 7.4056 96.0545 7.55706 95.772 7.7994C95.4895 8.07204 95.3639 8.37496 95.3639 8.76877C95.3639 9.13228 95.4895 9.4655 95.772 9.73813C96.0545 10.0108 96.3685 10.1319 96.7765 10.1319H100.073C101.046 10.1319 101.862 10.4652 102.552 11.1316C103.243 11.798 103.588 12.5856 103.588 13.5247C103.588 14.4638 103.243 15.2514 102.552 15.9178C101.862 16.5843 101.046 16.9175 100.073 16.9175H94.328Z" fill="#333333"/>
<path d="M110.244 16.9175C109.961 16.9175 109.71 16.8266 109.491 16.6145C109.302 16.4328 109.177 16.1905 109.177 15.8875V7.4056H106.132C105.849 7.4056 105.598 7.31472 105.378 7.10267C105.159 6.89063 105.064 6.67858 105.064 6.37565C105.064 6.07273 105.159 5.86068 105.378 5.64863C105.598 5.43658 105.818 5.3457 106.132 5.3457H114.325C114.607 5.3457 114.858 5.43658 115.078 5.64863C115.298 5.86068 115.392 6.07273 115.392 6.37565C115.392 6.67858 115.298 6.89063 115.078 7.10267C114.858 7.31472 114.639 7.4056 114.325 7.4056H111.28V15.9178C111.28 16.1905 111.186 16.4328 110.966 16.6448C110.778 16.8266 110.526 16.9175 110.244 16.9175Z" fill="#333333"/>
<path d="M122.894 16.9175C121.262 16.9175 119.849 16.3419 118.656 15.2211C117.495 14.1003 116.898 12.7371 116.898 11.1316C116.898 9.55637 117.495 8.16291 118.656 7.04209C119.818 5.92126 121.23 5.3457 122.894 5.3457C124.526 5.3457 125.97 5.92126 127.132 7.04209C128.293 8.16291 128.89 9.52608 128.89 11.1316C128.89 12.7068 128.293 14.07 127.132 15.2211C125.939 16.3419 124.526 16.9175 122.894 16.9175ZM122.894 7.4056C121.827 7.4056 120.917 7.76911 120.163 8.52643C119.41 9.25345 119.033 10.1319 119.033 11.1619C119.033 12.1918 119.41 13.0703 120.163 13.7973C120.917 14.5244 121.827 14.8879 122.894 14.8879C123.961 14.8879 124.872 14.5244 125.657 13.7973C126.41 13.0703 126.787 12.1918 126.787 11.1619C126.787 10.1319 126.41 9.25345 125.657 8.52643C124.872 7.76911 123.93 7.4056 122.894 7.4056Z" fill="#333333"/>
<path d="M140.63 16.9179C140.347 16.9179 140.096 16.8271 139.876 16.615L136.894 13.7372H133.441V15.888C133.441 16.1606 133.347 16.403 133.127 16.615C132.908 16.8271 132.688 16.9179 132.374 16.9179C132.091 16.9179 131.84 16.8271 131.621 16.615C131.401 16.403 131.307 16.1909 131.307 15.888V6.40641C131.307 6.13378 131.401 5.89144 131.621 5.67939C131.84 5.46734 132.06 5.37646 132.374 5.37646H137.302C138.495 5.37646 139.5 5.77027 140.379 6.61846C141.226 7.43636 141.666 8.40572 141.666 9.58714C141.666 10.3142 141.477 11.0109 141.101 11.6167C140.755 12.2226 140.253 12.7376 139.625 13.1011L139.343 13.2828L141.352 15.1913C141.572 15.4033 141.666 15.6154 141.666 15.9183C141.666 16.1909 141.572 16.4333 141.352 16.6453C141.163 16.8271 140.912 16.9179 140.63 16.9179ZM133.473 11.7076H137.334C137.962 11.7076 138.495 11.4956 138.903 11.0715C139.343 10.6474 139.562 10.1324 139.562 9.55684C139.562 8.95099 139.343 8.43602 138.903 8.04221C138.464 7.61812 137.93 7.40607 137.334 7.40607H133.473V11.7076Z" fill="#333333"/>
<path d="M148.321 16.9179C148.038 16.9179 147.787 16.8271 147.567 16.615C147.348 16.403 147.254 16.1909 147.254 15.888V13.0102L143.33 6.92139C143.173 6.67905 143.141 6.43671 143.204 6.16407C143.267 5.89144 143.424 5.67939 143.675 5.52793C143.863 5.43705 144.02 5.37646 144.209 5.37646C144.303 5.37646 144.366 5.37646 144.46 5.40676C144.742 5.46734 144.962 5.61881 145.119 5.86115L148.352 10.8291L151.586 5.86115C151.743 5.61881 151.962 5.46734 152.245 5.40676C152.339 5.37646 152.402 5.37646 152.496 5.37646C152.684 5.37646 152.873 5.43705 153.03 5.52793C153.281 5.67939 153.438 5.89144 153.5 6.16407C153.563 6.43671 153.532 6.67905 153.375 6.92139L149.42 13.0102V15.888C149.42 16.1606 149.325 16.403 149.106 16.615C148.886 16.8271 148.635 16.9179 148.321 16.9179Z" fill="#333333"/>
</g>
<defs>
<linearGradient id="paint0_linear_1444_5560" x1="29.059" y1="13.2863" x2="9.78118" y2="13.2863" gradientUnits="userSpaceOnUse">
<stop stop-color="#B3FFC5"/>
<stop offset="1" stop-color="#97DDFA"/>
</linearGradient>
<linearGradient id="paint1_linear_1444_5560" x1="19.5899" y1="14.4083" x2="10.2918" y2="14.4083" gradientUnits="userSpaceOnUse">
<stop offset="0.00534759" stop-color="#0048B6"/>
<stop offset="0.3572" stop-color="#377ECF"/>
<stop offset="1" stop-color="#97DDFA"/>
</linearGradient>
<linearGradient id="paint2_linear_1444_5560" x1="23.7516" y1="8.39815" x2="4.47382" y2="8.39815" gradientUnits="userSpaceOnUse">
<stop stop-color="#A9FFCE"/>
<stop offset="1" stop-color="#97DDFA"/>
</linearGradient>
<linearGradient id="paint3_linear_1444_5560" x1="4.30021" y1="-1.17348" x2="13.5285" y2="8.38936" gradientUnits="userSpaceOnUse">
<stop stop-color="#2C95FF"/>
<stop offset="0.0952693" stop-color="#369CFF"/>
<stop offset="1" stop-color="#97DDFA"/>
</linearGradient>
<linearGradient id="paint4_linear_1444_5560" x1="14.4952" y1="9.48535" x2="4.972" y2="9.48535" gradientUnits="userSpaceOnUse">
<stop offset="0.00534759" stop-color="#0048B6"/>
<stop offset="0.3572" stop-color="#377ECF"/>
<stop offset="1" stop-color="#97DDFA"/>
</linearGradient>
<clipPath id="clip0_1444_5560">
<rect width="153" height="22" fill="white" transform="translate(0.5)"/>
</clipPath>
</defs>
</svg>
